<svg width="65" height="65" viewBox="0 0 65 65" fill="none" xmlns="http://www.w3.org/2000/svg">
<path d="M44.4364 8.4575C44.4364 6.07025 42.8449 4.47875 40.4577 4.47875H38.0704C37.2747 2.0915 35.2853 0.5 32.5002 0.5C29.7151 0.5 27.7257 2.0915 26.9299 4.47875H24.5427C22.1554 4.47875 20.5639 6.07025 20.5639 8.4575V16.415H44.4364V8.4575ZM52.3939 8.4575H48.4152V16.415H52.3939V56.2025H12.6064V16.415H16.5852V8.4575H12.6064C8.22982 8.4575 4.64895 12.0384 4.64895 16.415V56.2025C4.64895 60.5791 8.22982 64.16 12.6064 64.16H52.3939C56.7706 64.16 60.3514 60.5791 60.3514 56.2025V16.415C60.3514 12.0384 56.7706 8.4575 52.3939 8.4575ZM28.5214 39.0939L21.3597 32.33L15.7894 37.9003L28.5214 50.6323L49.2109 27.9534L43.2428 22.781L28.5214 39.0939Z" fill="#5CCFA4"/>
</svg>
